# xmcd
#
# Track frame offsets:
#	150
#	13452
#	26532
#	40250
#
# Disc length: 693 seconds
#
# Revision: 0
# Processed by: cddbd v1.5.1PL2 Copyright (c) Steve Scherf et al.
# Submitted via: audiograbber 1.83.01
#
DISCID=2c02b304
DTITLE=Brass Penny - Dreams
DYEAR=1996
DGENRE=Country
TTITLE0=They Don't Break 'em Like They Used To
TTITLE1=Just About Now
TTITLE2=Just Around The Eyes
TTITLE3=Life's Too Short To Love Like That
EXTD=
EXTT0=
EXTT1=
EXTT2=
EXTT3=
PLAYORDER=
